G04 DipTrace 2.4.0.2*
%INBottomMask.gbr*%
%MOMM*%
%ADD38R,1.25X0.85*%
%ADD40R,1.3X0.8*%
%ADD42C,1.9*%
%ADD46R,1.9X1.9*%
%ADD48R,1.8X2.0*%
%ADD50O,1.2X1.5*%
%ADD52R,1.2X1.5*%
%ADD54R,1.2X1.7*%
%ADD56R,1.3X1.2*%
%ADD58R,2.2X2.2*%
%ADD66R,1.2X1.3*%
%ADD68C,0.9*%
%ADD70O,1.5X1.2*%
%ADD74R,1.5X1.2*%
%FSLAX53Y53*%
G04*
G71*
G90*
G75*
G01*
%LNBotMask*%
%LPD*%
D74*
X26100Y21900D3*
D70*
Y23170D3*
Y24440D3*
Y25710D3*
Y26980D3*
D68*
X26700Y19200D3*
X19100Y14200D3*
X20100D3*
X21200Y14100D3*
X22300Y14200D3*
X23300D3*
X19900Y17900D3*
X23900Y10800D3*
X15400Y18500D3*
D58*
X18100Y11400D3*
Y18400D3*
X11100D3*
Y11400D3*
D56*
X21300Y15400D3*
X19600D3*
D68*
X13400Y26800D3*
D54*
X13000Y25600D3*
Y22100D3*
X11600Y25600D3*
Y22100D3*
D52*
X16400Y21500D3*
D50*
X15130D3*
D74*
X26100Y10900D3*
D70*
Y12170D3*
D48*
X20700Y12500D3*
X23500D3*
D68*
X11200Y16500D3*
D46*
X16000Y23700D3*
D42*
Y26240D3*
X18540Y23700D3*
Y26240D3*
X21080Y23700D3*
Y26240D3*
X23620Y23700D3*
Y26240D3*
D68*
X20700Y18600D3*
X21500Y18100D3*
X22300Y18200D3*
X23000Y18900D3*
D40*
X25900Y17200D3*
Y16250D3*
Y15300D3*
X23200D3*
Y17200D3*
D68*
X11500Y24400D3*
X11300Y23500D3*
X12200Y23700D3*
D38*
X21600Y20000D3*
Y21900D3*
X23900Y20950D3*
D56*
X21300Y16700D3*
X19600D3*
X19500Y21000D3*
X17800D3*
D68*
X26700Y18200D3*
X24400Y21800D3*
X20500Y22200D3*
X14800Y19600D3*
X23000Y10900D3*
D66*
X27400Y23000D3*
Y21300D3*
M02*
