G04 DipTrace 2.4.0.2*
%INBottomMask.gbr*%
%MOIN*%
%ADD38R,0.0492X0.0335*%
%ADD40R,0.0512X0.0315*%
%ADD42C,0.0748*%
%ADD46R,0.0748X0.0748*%
%ADD48R,0.0709X0.0787*%
%ADD50O,0.0472X0.0591*%
%ADD52R,0.0472X0.0591*%
%ADD54R,0.0472X0.0669*%
%ADD56R,0.0512X0.0472*%
%ADD58R,0.0866X0.0866*%
%ADD66R,0.0472X0.0512*%
%ADD68C,0.0354*%
%ADD70O,0.0591X0.0472*%
%ADD74R,0.0591X0.0472*%
%FSLAX44Y44*%
G04*
G70*
G90*
G75*
G01*
%LNBotMask*%
%LPD*%
D74*
X10157Y8740D3*
D70*
Y9240D3*
Y9740D3*
Y10240D3*
Y10740D3*
D68*
X10472Y7559D3*
X7520Y5591D3*
X7913D3*
X8346Y5551D3*
X8780Y5591D3*
X9173D3*
X7795Y7126D3*
X9409Y4291D3*
X6063Y7283D3*
D58*
X7126Y4488D3*
Y7244D3*
X4370D3*
Y4488D3*
D56*
X8504Y6024D3*
X7835D3*
D68*
X5276Y10551D3*
D54*
X5118Y10079D3*
Y8701D3*
X4567Y10079D3*
Y8701D3*
D52*
X6457Y8465D3*
D50*
X5957D3*
D74*
X10157Y4449D3*
D70*
Y4949D3*
D48*
X8150Y4921D3*
X9252D3*
D68*
X4409Y6496D3*
D46*
X6102Y9449D3*
D42*
Y10449D3*
X7102Y9449D3*
Y10449D3*
X8102Y9449D3*
Y10449D3*
X9102Y9449D3*
Y10449D3*
D68*
X8110Y7362D3*
X8386Y7087D3*
X8780Y7165D3*
X9134Y7441D3*
D40*
X10197Y6772D3*
Y6398D3*
Y6024D3*
X9134D3*
Y6772D3*
D68*
X4528Y9606D3*
X4449Y9252D3*
X4803Y9331D3*
D38*
X8504Y7874D3*
Y8622D3*
X9409Y8248D3*
D56*
X8543Y6614D3*
X7874D3*
X7677Y8268D3*
X7008D3*
D68*
X10512Y6969D3*
X9488Y8622D3*
X7835Y8858D3*
X5827Y7717D3*
X8937Y4291D3*
D66*
X10787Y8701D3*
Y8031D3*
M02*
