G04 DipTrace 2.4.0.2*
%INInner2.gbr*%
%MOMM*%
%ADD14C,0.4*%
%ADD17C,1.0*%
%ADD19C,0.7*%
%ADD31C,1.7*%
%FSLAX53Y53*%
G04*
G71*
G90*
G75*
G01*
%LNInner2_Plane*%
%LPD*%
X22300Y14200D2*
D14*
X22400D1*
Y14700D1*
X22800Y15100D1*
X22900D1*
X25200Y17400D1*
Y24810D1*
X26100Y25710D1*
X23300Y14200D2*
Y14600D1*
X25900Y17200D1*
Y21700D1*
X26100Y21900D1*
X16400Y21500D2*
Y21400D1*
X15500Y20500D1*
X13000D1*
X12400Y19900D1*
Y17700D1*
X11200Y16500D1*
X23620Y23700D2*
X23200D1*
X24900Y25400D1*
Y27200D1*
X24400Y27700D1*
X12200D1*
X10500Y26000D1*
Y17200D1*
X11200Y16500D1*
X23000Y10900D2*
X11400D1*
X10800Y11500D1*
Y16100D1*
X11200Y16500D1*
X26100Y26980D2*
X24900Y27200D1*
X23000Y18900D2*
X22600D1*
X19700Y21800D1*
X17900D1*
X17300Y22400D1*
X15200D1*
X14600Y23000D1*
Y25600D1*
X13400Y26800D1*
X20500Y22200D2*
X22300D1*
X23700Y20800D1*
Y18000D1*
X22000Y16300D1*
X19400D1*
X16900Y18800D1*
Y18900D1*
X16100Y19700D1*
X14900D1*
X14800Y19600D1*
X24400Y21800D2*
Y17600D1*
X22500Y15700D1*
X12600D1*
X11600Y14700D1*
Y12500D1*
X12300Y11800D1*
X24300D1*
X25100Y11000D1*
X25600D1*
Y10800D1*
X26200D1*
X26100Y10900D1*
D17*
Y21900D3*
Y23170D3*
Y24440D3*
Y25710D3*
Y26980D3*
D19*
X26700Y19200D3*
X19100Y14200D3*
X20100D3*
X21200Y14100D3*
X22300Y14200D3*
X23300D3*
X19900Y17900D3*
X23900Y10800D3*
X15400Y18500D3*
X13400Y26800D3*
D17*
X16400Y21500D3*
X15130D3*
X26100Y10900D3*
Y12170D3*
D19*
X11200Y16500D3*
D31*
X16000Y23700D3*
Y26240D3*
X18540Y23700D3*
Y26240D3*
X21080Y23700D3*
Y26240D3*
X23620Y23700D3*
Y26240D3*
D19*
X20700Y18600D3*
X21500Y18100D3*
X22300Y18200D3*
X23000Y18900D3*
X11500Y24400D3*
X11300Y23500D3*
X12200Y23700D3*
X26700Y18200D3*
X24400Y21800D3*
X20500Y22200D3*
X14800Y19600D3*
X23000Y10900D3*
M02*
