G04 DipTrace 2.4.0.2*
%INInner2.gbr*%
%MOIN*%
%ADD14C,0.0157*%
%ADD17C,0.0394*%
%ADD19C,0.0276*%
%ADD31C,0.0669*%
%FSLAX44Y44*%
G04*
G70*
G90*
G75*
G01*
%LNInner2_Plane*%
%LPD*%
X8780Y5591D2*
D14*
X8819D1*
Y5787D1*
X8976Y5945D1*
X9016D1*
X9921Y6850D1*
Y10004D1*
X10157Y10240D1*
X9173Y5591D2*
Y5748D1*
X10197Y6772D1*
Y8701D1*
X10157Y8740D1*
X6457Y8465D2*
Y8425D1*
X6102Y8071D1*
X5118D1*
X4882Y7835D1*
Y6969D1*
X4409Y6496D1*
X9102Y9449D2*
X9252D1*
X9803Y10000D1*
Y10709D1*
X9606Y10906D1*
X4803D1*
X4134Y10236D1*
Y6772D1*
X4409Y6496D1*
X8937Y4291D2*
X4488D1*
X4252Y4528D1*
Y6339D1*
X4409Y6496D1*
X10157Y10740D2*
X9803D1*
Y10709D1*
X9134Y7441D2*
X8898D1*
X7756Y8583D1*
X7047D1*
X6811Y8819D1*
X5984D1*
X5748Y9055D1*
Y10079D1*
X5276Y10551D1*
X7835Y8858D2*
X8661D1*
X9331Y8189D1*
Y7087D1*
X8661Y6417D1*
X7638D1*
X6654Y7402D1*
Y7441D1*
X6339Y7756D1*
X5866D1*
X5827Y7717D1*
X9488Y8622D2*
Y6811D1*
X8858Y6181D1*
X4961D1*
X4567Y5787D1*
Y4921D1*
X4843Y4646D1*
X9567D1*
X9882Y4331D1*
X10079D1*
Y4370D1*
X10157Y4449D1*
D17*
Y8740D3*
Y9240D3*
Y9740D3*
Y10240D3*
Y10740D3*
D19*
X10472Y7559D3*
X7520Y5591D3*
X7913D3*
X8346Y5551D3*
X8780Y5591D3*
X9173D3*
X7795Y7126D3*
X9409Y4291D3*
X6063Y7283D3*
X5276Y10551D3*
D17*
X6457Y8465D3*
X5957D3*
X10157Y4449D3*
Y4949D3*
D19*
X4409Y6496D3*
D31*
X6102Y9449D3*
Y10449D3*
X7102Y9449D3*
Y10449D3*
X8102Y9449D3*
Y10449D3*
X9102Y9449D3*
Y10449D3*
D19*
X8110Y7362D3*
X8386Y7087D3*
X8780Y7165D3*
X9134Y7441D3*
X4528Y9606D3*
X4449Y9252D3*
X4803Y9331D3*
X10512Y6969D3*
X9488Y8622D3*
X7835Y8858D3*
X5827Y7717D3*
X8937Y4291D3*
M02*
