G04 DipTrace 2.4.0.2*
%INInner1.gbr*%
%MOIN*%
%ADD14C,0.0157*%
%ADD17C,0.0394*%
%ADD19C,0.0276*%
%ADD31C,0.0669*%
%FSLAX44Y44*%
G04*
G70*
G90*
G75*
G01*
%LNInner1_Plane*%
%LPD*%
X4449Y9252D2*
D14*
Y7047D1*
X5906Y5591D1*
X7520D1*
X4803Y9331D2*
Y7205D1*
X5787Y6220D1*
X7362D1*
X7913Y5669D1*
Y5591D1*
X8346Y5551D2*
Y5630D1*
X7362Y6614D1*
X6142D1*
X5197Y7559D1*
Y9606D1*
X5000Y9803D1*
X4764D1*
X4528Y9567D1*
Y9606D1*
X9409Y4291D2*
Y4961D1*
X10079Y5630D1*
Y7795D1*
X10591Y8307D1*
Y9307D1*
X10157Y9740D1*
X9102Y10449D2*
Y10520D1*
X8622Y10039D1*
Y8780D1*
X7795Y7953D1*
Y7126D1*
X6102Y10449D2*
Y10630D1*
X5472Y10000D1*
Y8858D1*
X5866Y8465D1*
X5957D1*
X6102Y9449D2*
X6260D1*
X7283Y8425D1*
Y7126D1*
X7638Y6772D1*
X7992D1*
X8110Y6890D1*
Y7362D1*
X10157Y9240D2*
Y9291D1*
X9764Y8898D1*
Y6890D1*
X9567Y6693D1*
X8543D1*
X8386Y6850D1*
Y7087D1*
X8102Y10449D2*
X8165D1*
X8622Y10906D1*
X9528D1*
X9803Y10630D1*
Y9370D1*
X8740Y8307D1*
Y7165D1*
X8780D1*
X7102Y10449D2*
Y10535D1*
X6732Y10906D1*
X4803D1*
X4134Y10236D1*
Y4449D1*
X4567Y4016D1*
X10433D1*
X10866Y4449D1*
Y7323D1*
X10669Y7520D1*
X10512D1*
X10472Y7559D1*
D17*
X10157Y8740D3*
Y9240D3*
Y9740D3*
Y10240D3*
Y10740D3*
D19*
X10472Y7559D3*
X7520Y5591D3*
X7913D3*
X8346Y5551D3*
X8780Y5591D3*
X9173D3*
X7795Y7126D3*
X9409Y4291D3*
X6063Y7283D3*
X5276Y10551D3*
D17*
X6457Y8465D3*
X5957D3*
X10157Y4449D3*
Y4949D3*
D19*
X4409Y6496D3*
D31*
X6102Y9449D3*
Y10449D3*
X7102Y9449D3*
Y10449D3*
X8102Y9449D3*
Y10449D3*
X9102Y9449D3*
Y10449D3*
D19*
X8110Y7362D3*
X8386Y7087D3*
X8780Y7165D3*
X9134Y7441D3*
X4528Y9606D3*
X4449Y9252D3*
X4803Y9331D3*
X10512Y6969D3*
X9488Y8622D3*
X7835Y8858D3*
X5827Y7717D3*
X8937Y4291D3*
M02*
