M48
INCH
T01C0.0157
T02C0.0276
T03C0.0433
%
T01
X+010472Y+007559
X+010512Y+006969
X+009134Y+007441
X+008780Y+007165
X+008386Y+007087
X+008110Y+007362
X+007795Y+007126
X+007913Y+005591
X+007520Y+005591
X+008346Y+005551
X+008780Y+005591
X+009173Y+005591
X+008937Y+004291
X+009409Y+004291
X+009488Y+008622
X+007835Y+008858
X+005827Y+007717
X+006063Y+007283
X+004409Y+006496
X+004449Y+009252
X+004528Y+009606
X+004803Y+009331
X+005276Y+010551
T02
X+010157Y+008740
X+010157Y+009240
X+010157Y+009740
X+010157Y+010240
X+010157Y+010740
X+006457Y+008465
X+005957Y+008465
X+010157Y+004949
X+010157Y+004449
T03
X+006102Y+009449
X+006102Y+010449
X+007102Y+010449
X+008102Y+010449
X+008102Y+009449
X+007102Y+009449
X+009102Y+009449
X+009102Y+010449
T00
M30
