M48
INCH
T01C0.0157
T02C0.0276
T03C0.0433
%
T01
X+010512Y+007559
X+010512Y+007165
X+009055Y+007441
X+008780Y+007165
X+008465Y+007126
X+008150Y+007323
X+007835Y+007047
X+007913Y+005591
X+007520Y+005591
X+008346Y+005551
X+008780Y+005591
X+009173Y+005591
X+009055Y+004291
X+009409Y+004252
X+009606Y+008583
X+008071Y+008740
X+005827Y+007717
X+006063Y+007283
X+004409Y+006496
X+004449Y+009252
X+004528Y+009606
X+004803Y+009331
X+005276Y+010551
T02
X+010276Y+008622
X+010276Y+009122
X+010276Y+009622
X+010276Y+010122
X+010276Y+010622
X+006457Y+008465
X+005957Y+008465
X+010276Y+004791
X+010276Y+004291
T03
X+006299Y+009331
X+006299Y+010331
X+007299Y+010331
X+008299Y+010331
X+008299Y+009331
X+007299Y+009331
X+009299Y+009331
X+009299Y+010331
T00
M30
