G04 DipTrace 2.4.0.2*
%INTop.gbr*%
%MOIN*%
%ADD14C,0.0157*%
%ADD16R,0.0512X0.0394*%
%ADD18O,0.0512X0.0394*%
%ADD19C,0.0276*%
%ADD20R,0.0394X0.0433*%
%ADD21R,0.0551X0.0157*%
%ADD22R,0.0591X0.0748*%
%ADD23R,0.063X0.0512*%
%ADD27R,0.0394X0.0512*%
%ADD28O,0.0394X0.0512*%
%ADD30R,0.0669X0.0669*%
%ADD32C,0.0669*%
%FSLAX44Y44*%
G04*
G70*
G90*
G75*
G01*
%LNTop*%
%LPD*%
X7205Y4803D2*
D14*
Y5276D1*
X7520Y5591D1*
Y4803D2*
Y5197D1*
X7913Y5591D1*
X8465Y4803D2*
Y5433D1*
X8346Y5551D1*
X9094Y4803D2*
Y5276D1*
X8780Y5591D1*
X9409Y4803D2*
Y4291D1*
X9961Y5354D2*
X9409D1*
X9173Y5591D1*
X7520Y8110D2*
Y7402D1*
X7795Y7126D1*
X9961Y5669D2*
X9567D1*
X9252Y5984D1*
X6654D1*
X9961Y6299D2*
X9525D1*
X9231Y6005D1*
X9252Y5984D1*
X6654Y6614D2*
X6220D1*
X6063Y6457D1*
Y6063D1*
X6142Y5984D1*
X6654D1*
Y6299D2*
X7756D1*
X8976D1*
X9291Y6614D1*
X9961D1*
X6654Y6929D2*
X7441D1*
X7756Y6614D1*
Y6299D1*
X6654Y6929D2*
X6260D1*
X5669D1*
X5118D2*
X5669D1*
X5315Y8543D2*
Y8386D1*
X5079Y8150D1*
Y7008D1*
X5157D1*
Y6772D1*
X5000Y6929D1*
X5118D1*
X4409Y6496D2*
X4567D1*
X5079Y7008D1*
X6654Y7244D2*
X6102D1*
X6063Y7283D1*
X5906Y5118D2*
X4606D1*
X5669Y6260D2*
X5630D1*
Y6063D1*
X6024Y5669D1*
Y5000D1*
X5906Y5118D1*
X6654Y5669D2*
X6024D1*
X5906Y4331D2*
X5827Y4252D1*
X6220D1*
X6732Y4764D1*
Y5354D1*
X6654D1*
X5906Y4331D2*
Y4291D1*
X4606D1*
Y4331D1*
Y4134D1*
X4094Y4646D1*
Y5512D1*
X4370Y5787D1*
X4843D1*
X5118Y6063D1*
Y6260D1*
X5315Y9567D2*
X5276D1*
Y10551D1*
X5827Y7717D2*
X5906D1*
X6063Y7559D1*
X6654D1*
X8110Y7362D2*
X7992D1*
X7835Y7520D1*
Y8110D1*
X8150D2*
Y7756D1*
X8386Y7520D1*
Y7087D1*
X8780Y8110D2*
Y7165D1*
X9961Y7559D2*
X10472D1*
X9961Y7244D2*
X10236D1*
X10512Y6969D1*
G36*
X6319Y7461D2*
Y7657D1*
X6988D1*
Y7461D1*
X6319D1*
G37*
G36*
Y7146D2*
Y7343D1*
X6988D1*
Y7146D1*
X6319D1*
G37*
G36*
Y6831D2*
Y7028D1*
X6988D1*
Y6831D1*
X6319D1*
G37*
G36*
Y6516D2*
Y6713D1*
X6988D1*
Y6516D1*
X6319D1*
G37*
G36*
Y6201D2*
Y6398D1*
X6988D1*
Y6201D1*
X6319D1*
G37*
G36*
Y5886D2*
Y6083D1*
X6988D1*
Y5886D1*
X6319D1*
G37*
G36*
Y5571D2*
Y5768D1*
X6988D1*
Y5571D1*
X6319D1*
G37*
G36*
Y5256D2*
Y5453D1*
X6988D1*
Y5256D1*
X6319D1*
G37*
G36*
X7106Y5138D2*
X7303D1*
Y4469D1*
X7106D1*
Y5138D1*
G37*
G36*
X7421D2*
X7618D1*
Y4469D1*
X7421D1*
Y5138D1*
G37*
G36*
X7736D2*
X7933D1*
Y4469D1*
X7736D1*
Y5138D1*
G37*
G36*
X8051D2*
X8248D1*
Y4469D1*
X8051D1*
Y5138D1*
G37*
G36*
X8366D2*
X8563D1*
Y4469D1*
X8366D1*
Y5138D1*
G37*
G36*
X8681D2*
X8878D1*
Y4469D1*
X8681D1*
Y5138D1*
G37*
G36*
X8996D2*
X9193D1*
Y4469D1*
X8996D1*
Y5138D1*
G37*
G36*
X9311D2*
X9508D1*
Y4469D1*
X9311D1*
Y5138D1*
G37*
G36*
X9626Y5256D2*
Y5453D1*
X10295D1*
Y5256D1*
X9626D1*
G37*
G36*
Y5571D2*
Y5768D1*
X10295D1*
Y5571D1*
X9626D1*
G37*
G36*
Y5886D2*
Y6083D1*
X10295D1*
Y5886D1*
X9626D1*
G37*
G36*
Y6201D2*
Y6398D1*
X10295D1*
Y6201D1*
X9626D1*
G37*
G36*
Y6516D2*
Y6713D1*
X10295D1*
Y6516D1*
X9626D1*
G37*
G36*
Y6831D2*
Y7028D1*
X10295D1*
Y6831D1*
X9626D1*
G37*
G36*
Y7146D2*
Y7343D1*
X10295D1*
Y7146D1*
X9626D1*
G37*
G36*
Y7461D2*
Y7657D1*
X10295D1*
Y7461D1*
X9626D1*
G37*
G36*
X9311Y8445D2*
X9508D1*
Y7776D1*
X9311D1*
Y8445D1*
G37*
G36*
X8996D2*
X9193D1*
Y7776D1*
X8996D1*
Y8445D1*
G37*
G36*
X8681D2*
X8878D1*
Y7776D1*
X8681D1*
Y8445D1*
G37*
G36*
X8366D2*
X8563D1*
Y7776D1*
X8366D1*
Y8445D1*
G37*
G36*
X8051D2*
X8248D1*
Y7776D1*
X8051D1*
Y8445D1*
G37*
G36*
X7736D2*
X7933D1*
Y7776D1*
X7736D1*
Y8445D1*
G37*
G36*
X7421D2*
X7618D1*
Y7776D1*
X7421D1*
Y8445D1*
G37*
G36*
X7106D2*
X7303D1*
Y7776D1*
X7106D1*
Y8445D1*
G37*
D16*
X10157Y8740D3*
D18*
Y9240D3*
Y9740D3*
Y10240D3*
Y10740D3*
D19*
X10472Y7559D3*
X7520Y5591D3*
X7913D3*
X8346Y5551D3*
X8780Y5591D3*
X9173D3*
X7795Y7126D3*
X9409Y4291D3*
X6063Y7283D3*
D20*
X5669Y6260D3*
Y6929D3*
X5118Y6260D3*
Y6929D3*
D21*
X5315Y8543D3*
Y8799D3*
Y9055D3*
Y9311D3*
Y9567D3*
D22*
X4291Y10630D3*
X4252Y7441D3*
D23*
X4606Y4331D3*
X5906D3*
X4606Y5118D3*
X5906D3*
D19*
X5276Y10551D3*
D27*
X6457Y8465D3*
D28*
X5957D3*
D16*
X10157Y4449D3*
D18*
Y4949D3*
D19*
X4409Y6496D3*
D30*
X6102Y9449D3*
D32*
Y10449D3*
X7102Y9449D3*
Y10449D3*
X8102Y9449D3*
Y10449D3*
X9102Y9449D3*
Y10449D3*
D19*
X8110Y7362D3*
X8386Y7087D3*
X8780Y7165D3*
X9134Y7441D3*
X4528Y9606D3*
X4449Y9252D3*
X4803Y9331D3*
X10512Y6969D3*
X9488Y8622D3*
X7835Y8858D3*
X5827Y7717D3*
X8937Y4291D3*
M02*
