G04 DipTrace 2.4.0.2*
%INTop.gbr*%
%MOMM*%
%ADD14C,0.4*%
%ADD16R,1.3X1.0*%
%ADD18O,1.3X1.0*%
%ADD19C,0.7*%
%ADD20R,1.0X1.1*%
%ADD21R,1.4X0.4*%
%ADD22R,1.5X1.9*%
%ADD23R,1.6X1.3*%
%ADD27R,1.0X1.3*%
%ADD28O,1.0X1.3*%
%ADD30R,1.7X1.7*%
%ADD32C,1.7*%
%FSLAX53Y53*%
G04*
G71*
G90*
G75*
G01*
%LNTop*%
%LPD*%
X18300Y12200D2*
D14*
Y13400D1*
X19100Y14200D1*
Y12200D2*
Y13200D1*
X20100Y14200D1*
X21500Y12200D2*
Y13800D1*
X21200Y14100D1*
X23100Y12200D2*
Y13400D1*
X22300Y14200D1*
X23900Y12200D2*
Y10800D1*
X25300Y13600D2*
X23900D1*
X23300Y14200D1*
X19100Y20600D2*
Y18700D1*
X19900Y17900D1*
X25300Y14400D2*
X24300D1*
X23500Y15200D1*
X16900D1*
X25300Y16000D2*
X24193D1*
X23446Y15254D1*
X23500Y15200D1*
X16900Y16800D2*
X15800D1*
X15400Y16400D1*
Y15400D1*
X15600Y15200D1*
X16900D1*
Y16000D2*
X19700D1*
X22800D1*
X23600Y16800D1*
X25300D1*
X16900Y17600D2*
X18900D1*
X19700Y16800D1*
Y16000D1*
X16900Y17600D2*
X15900D1*
X14400D1*
X13000D2*
X14400D1*
X13500Y21700D2*
Y21300D1*
X12900Y20700D1*
Y17800D1*
X13100D1*
Y17200D1*
X12700Y17600D1*
X13000D1*
X11200Y16500D2*
X11600D1*
X12900Y17800D1*
X16900Y18400D2*
X15500D1*
X15400Y18500D1*
X16900Y14400D2*
X13500D1*
X12100Y13000D1*
X11700D1*
X12100D2*
X14400Y15300D1*
Y15900D1*
X15000Y11000D2*
X14800Y10800D1*
X15800D1*
X17100Y12100D1*
Y13600D1*
X16900D1*
X15000Y11000D2*
Y11300D1*
X11700D1*
Y11000D1*
Y10500D1*
X10300Y11900D1*
Y14100D1*
X11400Y15200D1*
X12500D1*
X13000Y15700D1*
Y15900D1*
X13500Y24300D2*
X13400D1*
Y26800D1*
X14800Y19600D2*
X15000D1*
X15400Y19200D1*
X16900D1*
X20700Y18600D2*
X20400D1*
X19900Y19100D1*
Y20600D1*
X20700D2*
Y19700D1*
X21500Y18900D1*
Y18100D1*
X22300Y20600D2*
Y18200D1*
X25300Y19200D2*
X26700D1*
X25300Y18400D2*
X26500D1*
X26700Y18200D1*
G36*
X16050Y18950D2*
Y19450D1*
X17750D1*
Y18950D1*
X16050D1*
G37*
G36*
Y18150D2*
Y18650D1*
X17750D1*
Y18150D1*
X16050D1*
G37*
G36*
Y17350D2*
Y17850D1*
X17750D1*
Y17350D1*
X16050D1*
G37*
G36*
Y16550D2*
Y17050D1*
X17750D1*
Y16550D1*
X16050D1*
G37*
G36*
Y15750D2*
Y16250D1*
X17750D1*
Y15750D1*
X16050D1*
G37*
G36*
Y14950D2*
Y15450D1*
X17750D1*
Y14950D1*
X16050D1*
G37*
G36*
Y14150D2*
Y14650D1*
X17750D1*
Y14150D1*
X16050D1*
G37*
G36*
Y13350D2*
Y13850D1*
X17750D1*
Y13350D1*
X16050D1*
G37*
G36*
X18050Y13050D2*
X18550D1*
Y11350D1*
X18050D1*
Y13050D1*
G37*
G36*
X18850D2*
X19350D1*
Y11350D1*
X18850D1*
Y13050D1*
G37*
G36*
X19650D2*
X20150D1*
Y11350D1*
X19650D1*
Y13050D1*
G37*
G36*
X20450D2*
X20950D1*
Y11350D1*
X20450D1*
Y13050D1*
G37*
G36*
X21250D2*
X21750D1*
Y11350D1*
X21250D1*
Y13050D1*
G37*
G36*
X22050D2*
X22550D1*
Y11350D1*
X22050D1*
Y13050D1*
G37*
G36*
X22850D2*
X23350D1*
Y11350D1*
X22850D1*
Y13050D1*
G37*
G36*
X23650D2*
X24150D1*
Y11350D1*
X23650D1*
Y13050D1*
G37*
G36*
X24450Y13350D2*
Y13850D1*
X26150D1*
Y13350D1*
X24450D1*
G37*
G36*
Y14150D2*
Y14650D1*
X26150D1*
Y14150D1*
X24450D1*
G37*
G36*
Y14950D2*
Y15450D1*
X26150D1*
Y14950D1*
X24450D1*
G37*
G36*
Y15750D2*
Y16250D1*
X26150D1*
Y15750D1*
X24450D1*
G37*
G36*
Y16550D2*
Y17050D1*
X26150D1*
Y16550D1*
X24450D1*
G37*
G36*
Y17350D2*
Y17850D1*
X26150D1*
Y17350D1*
X24450D1*
G37*
G36*
Y18150D2*
Y18650D1*
X26150D1*
Y18150D1*
X24450D1*
G37*
G36*
Y18950D2*
Y19450D1*
X26150D1*
Y18950D1*
X24450D1*
G37*
G36*
X23650Y21450D2*
X24150D1*
Y19750D1*
X23650D1*
Y21450D1*
G37*
G36*
X22850D2*
X23350D1*
Y19750D1*
X22850D1*
Y21450D1*
G37*
G36*
X22050D2*
X22550D1*
Y19750D1*
X22050D1*
Y21450D1*
G37*
G36*
X21250D2*
X21750D1*
Y19750D1*
X21250D1*
Y21450D1*
G37*
G36*
X20450D2*
X20950D1*
Y19750D1*
X20450D1*
Y21450D1*
G37*
G36*
X19650D2*
X20150D1*
Y19750D1*
X19650D1*
Y21450D1*
G37*
G36*
X18850D2*
X19350D1*
Y19750D1*
X18850D1*
Y21450D1*
G37*
G36*
X18050D2*
X18550D1*
Y19750D1*
X18050D1*
Y21450D1*
G37*
D16*
X26100Y21900D3*
D18*
Y23170D3*
Y24440D3*
Y25710D3*
Y26980D3*
D19*
X26700Y19200D3*
X19100Y14200D3*
X20100D3*
X21200Y14100D3*
X22300Y14200D3*
X23300D3*
X19900Y17900D3*
X23900Y10800D3*
X15400Y18500D3*
D20*
X14400Y15900D3*
Y17600D3*
X13000Y15900D3*
Y17600D3*
D21*
X13500Y21700D3*
Y22350D3*
Y23000D3*
Y23650D3*
Y24300D3*
D22*
X10900Y27000D3*
X10800Y18900D3*
D23*
X11700Y11000D3*
X15000D3*
X11700Y13000D3*
X15000D3*
D19*
X13400Y26800D3*
D27*
X16400Y21500D3*
D28*
X15130D3*
D16*
X26100Y10900D3*
D18*
Y12170D3*
D19*
X11200Y16500D3*
D30*
X16000Y23700D3*
D32*
Y26240D3*
X18540Y23700D3*
Y26240D3*
X21080Y23700D3*
Y26240D3*
X23620Y23700D3*
Y26240D3*
D19*
X20700Y18600D3*
X21500Y18100D3*
X22300Y18200D3*
X23000Y18900D3*
X11500Y24400D3*
X11300Y23500D3*
X12200Y23700D3*
X26700Y18200D3*
X24400Y21800D3*
X20500Y22200D3*
X14800Y19600D3*
X23000Y10900D3*
M02*
