G04 DipTrace 2.4.0.2*
%INTopDimension.gbr*%
%MOMM*%
%ADD13C,0.035*%
%ADD76C,0.157*%
%FSLAX53Y53*%
G04*
G71*
G90*
G75*
G01*
%LNTopDimension*%
%LPD*%
X28000Y28000D2*
D13*
X30400D1*
X28000Y10000D2*
X30400D1*
X29900Y19000D2*
Y27000D1*
G36*
Y28000D2*
X30100Y27000D1*
X29700D1*
X29900Y28000D1*
G37*
Y19000D2*
D13*
Y11000D1*
G36*
Y10000D2*
X29700Y11000D1*
X30100D1*
X29900Y10000D1*
G37*
X10000D2*
D13*
Y8200D1*
X28000Y10000D2*
Y8200D1*
X19000Y8700D2*
X11000D1*
G36*
X10000D2*
X11000Y8900D1*
Y8500D1*
X10000Y8700D1*
G37*
X19000D2*
D13*
X27000D1*
G36*
X28000D2*
X27000Y8500D1*
Y8900D1*
X28000Y8700D1*
G37*
X31036Y19540D2*
D76*
X31085Y19442D1*
X31230Y19296D1*
X30210D1*
X31230Y18740D2*
X31182Y18885D1*
X31085Y18934D1*
X30987D1*
X30891Y18885D1*
X30841Y18788D1*
X30793Y18594D1*
X30745Y18448D1*
X30647Y18351D1*
X30550Y18303D1*
X30404D1*
X30308Y18351D1*
X30258Y18400D1*
X30210Y18546D1*
Y18740D1*
X30258Y18885D1*
X30308Y18934D1*
X30404Y18983D1*
X30550D1*
X30647Y18934D1*
X30745Y18837D1*
X30793Y18692D1*
X30841Y18497D1*
X30891Y18400D1*
X30987Y18351D1*
X31085D1*
X31182Y18400D1*
X31230Y18546D1*
Y18740D1*
X18460Y9836D2*
X18558Y9885D1*
X18704Y10030D1*
Y9010D1*
X19260Y10030D2*
X19115Y9982D1*
X19066Y9885D1*
Y9787D1*
X19115Y9691D1*
X19212Y9641D1*
X19406Y9593D1*
X19552Y9545D1*
X19649Y9447D1*
X19697Y9350D1*
Y9204D1*
X19649Y9108D1*
X19600Y9058D1*
X19454Y9010D1*
X19260D1*
X19115Y9058D1*
X19066Y9108D1*
X19017Y9204D1*
Y9350D1*
X19066Y9447D1*
X19163Y9545D1*
X19308Y9593D1*
X19503Y9641D1*
X19600Y9691D1*
X19649Y9787D1*
Y9885D1*
X19600Y9982D1*
X19454Y10030D1*
X19260D1*
M02*
