G04 DipTrace 2.4.0.2*
%INTopDimension.gbr*%
%MOIN*%
%ADD13C,0.0014*%
%ADD76C,0.0062*%
%FSLAX44Y44*%
G04*
G70*
G90*
G75*
G01*
%LNTopDimension*%
%LPD*%
X11024Y11024D2*
D13*
X12008D1*
X11024Y3937D2*
X12008D1*
X11811Y7480D2*
Y10630D1*
G36*
Y11024D2*
X11890Y10630D1*
X11732D1*
X11811Y11024D1*
G37*
Y7480D2*
D13*
Y4331D1*
G36*
Y3937D2*
X11732Y4331D1*
X11890D1*
X11811Y3937D1*
G37*
X3937D2*
D13*
Y3228D1*
X11024Y3937D2*
Y3228D1*
X7480Y3425D2*
X4331D1*
G36*
X3937D2*
X4331Y3504D1*
Y3346D1*
X3937Y3425D1*
G37*
X7480D2*
D13*
X10630D1*
G36*
X11024D2*
X10630Y3346D1*
Y3504D1*
X11024Y3425D1*
G37*
X12258Y7693D2*
D76*
X12278Y7654D1*
X12335Y7597D1*
X11933D1*
X12335Y7378D2*
X12316Y7435D1*
X12278Y7454D1*
X12239D1*
X12201Y7435D1*
X12182Y7397D1*
X12163Y7320D1*
X12144Y7263D1*
X12105Y7225D1*
X12067Y7206D1*
X12010D1*
X11972Y7225D1*
X11952Y7244D1*
X11933Y7301D1*
Y7378D1*
X11952Y7435D1*
X11972Y7454D1*
X12010Y7473D1*
X12067D1*
X12105Y7454D1*
X12144Y7416D1*
X12163Y7359D1*
X12182Y7282D1*
X12201Y7244D1*
X12239Y7225D1*
X12278D1*
X12316Y7244D1*
X12335Y7301D1*
Y7378D1*
X7268Y3872D2*
X7306Y3892D1*
X7364Y3949D1*
Y3547D1*
X7583Y3949D2*
X7526Y3930D1*
X7506Y3892D1*
Y3853D1*
X7526Y3815D1*
X7564Y3796D1*
X7640Y3777D1*
X7698Y3758D1*
X7736Y3719D1*
X7755Y3681D1*
Y3624D1*
X7736Y3586D1*
X7717Y3566D1*
X7659Y3547D1*
X7583D1*
X7526Y3566D1*
X7506Y3586D1*
X7487Y3624D1*
Y3681D1*
X7506Y3719D1*
X7545Y3758D1*
X7602Y3777D1*
X7678Y3796D1*
X7717Y3815D1*
X7736Y3853D1*
Y3892D1*
X7717Y3930D1*
X7659Y3949D1*
X7583D1*
M02*
