G04 DipTrace 2.4.0.2*
%INTopMask.gbr*%
%MOIN*%
%ADD42C,0.0748*%
%ADD46R,0.0748X0.0748*%
%ADD50O,0.0472X0.0591*%
%ADD52R,0.0472X0.0591*%
%ADD60R,0.0709X0.0591*%
%ADD62R,0.0669X0.0827*%
%ADD64R,0.063X0.0236*%
%ADD66R,0.0472X0.0512*%
%ADD68C,0.0354*%
%ADD70O,0.0591X0.0472*%
%ADD74R,0.0591X0.0472*%
%FSLAX44Y44*%
G04*
G70*
G90*
G75*
G01*
%LNTopMask*%
%LPD*%
G36*
X6280Y7421D2*
Y7697D1*
X7028D1*
Y7421D1*
X6280D1*
G37*
G36*
Y7106D2*
Y7382D1*
X7028D1*
Y7106D1*
X6280D1*
G37*
G36*
Y6791D2*
Y7067D1*
X7028D1*
Y6791D1*
X6280D1*
G37*
G36*
Y6476D2*
Y6752D1*
X7028D1*
Y6476D1*
X6280D1*
G37*
G36*
Y6161D2*
Y6437D1*
X7028D1*
Y6161D1*
X6280D1*
G37*
G36*
Y5846D2*
Y6122D1*
X7028D1*
Y5846D1*
X6280D1*
G37*
G36*
Y5531D2*
Y5807D1*
X7028D1*
Y5531D1*
X6280D1*
G37*
G36*
Y5217D2*
Y5492D1*
X7028D1*
Y5217D1*
X6280D1*
G37*
G36*
X7067Y5177D2*
X7343D1*
Y4429D1*
X7067D1*
Y5177D1*
G37*
G36*
X7382D2*
X7657D1*
Y4429D1*
X7382D1*
Y5177D1*
G37*
G36*
X7697D2*
X7972D1*
Y4429D1*
X7697D1*
Y5177D1*
G37*
G36*
X8012D2*
X8287D1*
Y4429D1*
X8012D1*
Y5177D1*
G37*
G36*
X8327D2*
X8602D1*
Y4429D1*
X8327D1*
Y5177D1*
G37*
G36*
X8642D2*
X8917D1*
Y4429D1*
X8642D1*
Y5177D1*
G37*
G36*
X8957D2*
X9232D1*
Y4429D1*
X8957D1*
Y5177D1*
G37*
G36*
X9272D2*
X9547D1*
Y4429D1*
X9272D1*
Y5177D1*
G37*
G36*
X9587Y5217D2*
Y5492D1*
X10335D1*
Y5217D1*
X9587D1*
G37*
G36*
Y5531D2*
Y5807D1*
X10335D1*
Y5531D1*
X9587D1*
G37*
G36*
Y5846D2*
Y6122D1*
X10335D1*
Y5846D1*
X9587D1*
G37*
G36*
Y6161D2*
Y6437D1*
X10335D1*
Y6161D1*
X9587D1*
G37*
G36*
Y6476D2*
Y6752D1*
X10335D1*
Y6476D1*
X9587D1*
G37*
G36*
Y6791D2*
Y7067D1*
X10335D1*
Y6791D1*
X9587D1*
G37*
G36*
Y7106D2*
Y7382D1*
X10335D1*
Y7106D1*
X9587D1*
G37*
G36*
Y7421D2*
Y7697D1*
X10335D1*
Y7421D1*
X9587D1*
G37*
G36*
X9272Y8484D2*
X9547D1*
Y7736D1*
X9272D1*
Y8484D1*
G37*
G36*
X8957D2*
X9232D1*
Y7736D1*
X8957D1*
Y8484D1*
G37*
G36*
X8642D2*
X8917D1*
Y7736D1*
X8642D1*
Y8484D1*
G37*
G36*
X8327D2*
X8602D1*
Y7736D1*
X8327D1*
Y8484D1*
G37*
G36*
X8012D2*
X8287D1*
Y7736D1*
X8012D1*
Y8484D1*
G37*
G36*
X7697D2*
X7972D1*
Y7736D1*
X7697D1*
Y8484D1*
G37*
G36*
X7382D2*
X7657D1*
Y7736D1*
X7382D1*
Y8484D1*
G37*
G36*
X7067D2*
X7343D1*
Y7736D1*
X7067D1*
Y8484D1*
G37*
D74*
X10157Y8740D3*
D70*
Y9240D3*
Y9740D3*
Y10240D3*
Y10740D3*
D68*
X10472Y7559D3*
X7520Y5591D3*
X7913D3*
X8346Y5551D3*
X8780Y5591D3*
X9173D3*
X7795Y7126D3*
X9409Y4291D3*
X6063Y7283D3*
D66*
X5669Y6260D3*
Y6929D3*
X5118Y6260D3*
Y6929D3*
D64*
X5315Y8543D3*
Y8799D3*
Y9055D3*
Y9311D3*
Y9567D3*
D62*
X4291Y10630D3*
X4252Y7441D3*
D60*
X4606Y4331D3*
X5906D3*
X4606Y5118D3*
X5906D3*
D68*
X5276Y10551D3*
D52*
X6457Y8465D3*
D50*
X5957D3*
D74*
X10157Y4449D3*
D70*
Y4949D3*
D68*
X4409Y6496D3*
D46*
X6102Y9449D3*
D42*
Y10449D3*
X7102Y9449D3*
Y10449D3*
X8102Y9449D3*
Y10449D3*
X9102Y9449D3*
Y10449D3*
D68*
X8110Y7362D3*
X8386Y7087D3*
X8780Y7165D3*
X9134Y7441D3*
X4528Y9606D3*
X4449Y9252D3*
X4803Y9331D3*
X10512Y6969D3*
X9488Y8622D3*
X7835Y8858D3*
X5827Y7717D3*
X8937Y4291D3*
M02*
