G04 DipTrace 2.4.0.2*
%INTopPaste.gbr*%
%MOIN*%
%ADD61R,0.0551X0.0433*%
%ADD63R,0.0512X0.0669*%
%ADD65R,0.0472X0.0079*%
%ADD67R,0.0315X0.0354*%
%FSLAX44Y44*%
G04*
G70*
G90*
G75*
G01*
%LNTopPaste*%
%LPD*%
G36*
X6358Y7500D2*
Y7618D1*
X6949D1*
Y7500D1*
X6358D1*
G37*
G36*
Y7185D2*
Y7303D1*
X6949D1*
Y7185D1*
X6358D1*
G37*
G36*
Y6870D2*
Y6988D1*
X6949D1*
Y6870D1*
X6358D1*
G37*
G36*
Y6555D2*
Y6673D1*
X6949D1*
Y6555D1*
X6358D1*
G37*
G36*
Y6240D2*
Y6358D1*
X6949D1*
Y6240D1*
X6358D1*
G37*
G36*
Y5925D2*
Y6043D1*
X6949D1*
Y5925D1*
X6358D1*
G37*
G36*
Y5610D2*
Y5728D1*
X6949D1*
Y5610D1*
X6358D1*
G37*
G36*
Y5295D2*
Y5413D1*
X6949D1*
Y5295D1*
X6358D1*
G37*
G36*
X7146Y5098D2*
X7264D1*
Y4508D1*
X7146D1*
Y5098D1*
G37*
G36*
X7461D2*
X7579D1*
Y4508D1*
X7461D1*
Y5098D1*
G37*
G36*
X7776D2*
X7894D1*
Y4508D1*
X7776D1*
Y5098D1*
G37*
G36*
X8091D2*
X8209D1*
Y4508D1*
X8091D1*
Y5098D1*
G37*
G36*
X8406D2*
X8524D1*
Y4508D1*
X8406D1*
Y5098D1*
G37*
G36*
X8720D2*
X8839D1*
Y4508D1*
X8720D1*
Y5098D1*
G37*
G36*
X9035D2*
X9154D1*
Y4508D1*
X9035D1*
Y5098D1*
G37*
G36*
X9350D2*
X9469D1*
Y4508D1*
X9350D1*
Y5098D1*
G37*
G36*
X9665Y5295D2*
Y5413D1*
X10256D1*
Y5295D1*
X9665D1*
G37*
G36*
Y5610D2*
Y5728D1*
X10256D1*
Y5610D1*
X9665D1*
G37*
G36*
Y5925D2*
Y6043D1*
X10256D1*
Y5925D1*
X9665D1*
G37*
G36*
Y6240D2*
Y6358D1*
X10256D1*
Y6240D1*
X9665D1*
G37*
G36*
Y6555D2*
Y6673D1*
X10256D1*
Y6555D1*
X9665D1*
G37*
G36*
Y6870D2*
Y6988D1*
X10256D1*
Y6870D1*
X9665D1*
G37*
G36*
Y7185D2*
Y7303D1*
X10256D1*
Y7185D1*
X9665D1*
G37*
G36*
Y7500D2*
Y7618D1*
X10256D1*
Y7500D1*
X9665D1*
G37*
G36*
X9350Y8406D2*
X9469D1*
Y7815D1*
X9350D1*
Y8406D1*
G37*
G36*
X9035D2*
X9154D1*
Y7815D1*
X9035D1*
Y8406D1*
G37*
G36*
X8720D2*
X8839D1*
Y7815D1*
X8720D1*
Y8406D1*
G37*
G36*
X8406D2*
X8524D1*
Y7815D1*
X8406D1*
Y8406D1*
G37*
G36*
X8091D2*
X8209D1*
Y7815D1*
X8091D1*
Y8406D1*
G37*
G36*
X7776D2*
X7894D1*
Y7815D1*
X7776D1*
Y8406D1*
G37*
G36*
X7461D2*
X7579D1*
Y7815D1*
X7461D1*
Y8406D1*
G37*
G36*
X7146D2*
X7264D1*
Y7815D1*
X7146D1*
Y8406D1*
G37*
D67*
X5669Y6260D3*
Y6929D3*
X5118Y6260D3*
Y6929D3*
D65*
X5315Y8543D3*
Y8799D3*
Y9055D3*
Y9311D3*
Y9567D3*
D63*
X4291Y10630D3*
X4252Y7441D3*
D61*
X4606Y4331D3*
X5906D3*
X4606Y5118D3*
X5906D3*
M02*
