G04 DipTrace 2.4.0.2*
%INTop.gbr*%
%MOIN*%
%ADD11C,0.0055*%
%ADD14C,0.0157*%
%ADD16R,0.0512X0.0394*%
%ADD17C,0.0394*%
%ADD18O,0.0512X0.0394*%
%ADD19C,0.0276*%
%ADD20R,0.0394X0.0433*%
%ADD21R,0.0551X0.0157*%
%ADD22R,0.0591X0.0748*%
%ADD23R,0.063X0.0512*%
%ADD24R,0.0787X0.0787*%
%ADD25R,0.0433X0.0394*%
%ADD26R,0.0394X0.0591*%
%ADD27R,0.0394X0.0512*%
%ADD28O,0.0394X0.0512*%
%ADD29R,0.063X0.0709*%
%ADD30R,0.0669X0.0669*%
%ADD31C,0.0669*%
%ADD32C,0.0669*%
%ADD34R,0.0433X0.0236*%
%ADD35R,0.0413X0.0256*%
%FSLAX44Y44*%
G04*
G70*
G90*
G75*
G01*
%LNTop*%
%LPD*%
X7205Y4803D2*
D14*
Y5276D1*
X7520Y5591D1*
Y4803D2*
Y5197D1*
X7913Y5591D1*
X8465Y4803D2*
Y5433D1*
X8346Y5551D1*
X9094Y4803D2*
Y5276D1*
X8780Y5591D1*
X9409Y4803D2*
Y4252D1*
X9961Y5354D2*
X9409D1*
X9173Y5591D1*
X7520Y8110D2*
Y7362D1*
X7835Y7047D1*
X9961Y5669D2*
X9567D1*
X9252Y5984D1*
X6654D1*
X9961Y6299D2*
X9525D1*
X9231Y6005D1*
X9252Y5984D1*
X6654Y6614D2*
X6220D1*
X6063Y6457D1*
Y6063D1*
X6142Y5984D1*
X6654D1*
Y6299D2*
X7756D1*
X8976D1*
X9291Y6614D1*
X9961D1*
X6654Y6929D2*
X7441D1*
X7756Y6614D1*
Y6299D1*
X6654Y6929D2*
X6260D1*
X5669D1*
X5118D2*
X5669D1*
X5315Y8543D2*
Y8386D1*
X5079Y8150D1*
Y7008D1*
X5157D1*
Y6772D1*
X5000Y6929D1*
X5118D1*
X4409Y6496D2*
X4567D1*
X5079Y7008D1*
X6654Y7244D2*
X6102D1*
X6063Y7283D1*
X6654Y5669D2*
X5315D1*
X4764Y5118D1*
X4606D1*
X4764D2*
X5669Y6024D1*
Y6260D1*
X5906Y4331D2*
X5827Y4252D1*
X6220D1*
X6732Y4764D1*
Y5354D1*
X6654D1*
X5906Y4331D2*
Y4449D1*
X4606D1*
Y4331D1*
Y4134D1*
X4055Y4685D1*
Y5551D1*
X4488Y5984D1*
X4921D1*
X5118Y6181D1*
Y6260D1*
X5315Y9567D2*
X5276D1*
Y10551D1*
X5827Y7717D2*
X5906D1*
X6063Y7559D1*
X6654D1*
X8150Y7323D2*
X8031D1*
X7835Y7520D1*
Y8110D1*
X8150D2*
Y7756D1*
X8465Y7441D1*
Y7126D1*
X8780Y8110D2*
Y7165D1*
X9961Y7559D2*
X10512D1*
X9961Y7244D2*
X10433D1*
X10512Y7165D1*
G36*
X6319Y7461D2*
Y7657D1*
X6988D1*
Y7461D1*
X6319D1*
G37*
G36*
Y7146D2*
Y7343D1*
X6988D1*
Y7146D1*
X6319D1*
G37*
G36*
Y6831D2*
Y7028D1*
X6988D1*
Y6831D1*
X6319D1*
G37*
G36*
Y6516D2*
Y6713D1*
X6988D1*
Y6516D1*
X6319D1*
G37*
G36*
Y6201D2*
Y6398D1*
X6988D1*
Y6201D1*
X6319D1*
G37*
G36*
Y5886D2*
Y6083D1*
X6988D1*
Y5886D1*
X6319D1*
G37*
G36*
Y5571D2*
Y5768D1*
X6988D1*
Y5571D1*
X6319D1*
G37*
G36*
Y5256D2*
Y5453D1*
X6988D1*
Y5256D1*
X6319D1*
G37*
G36*
X7106Y5138D2*
X7303D1*
Y4469D1*
X7106D1*
Y5138D1*
G37*
G36*
X7421D2*
X7618D1*
Y4469D1*
X7421D1*
Y5138D1*
G37*
G36*
X7736D2*
X7933D1*
Y4469D1*
X7736D1*
Y5138D1*
G37*
G36*
X8051D2*
X8248D1*
Y4469D1*
X8051D1*
Y5138D1*
G37*
G36*
X8366D2*
X8563D1*
Y4469D1*
X8366D1*
Y5138D1*
G37*
G36*
X8681D2*
X8878D1*
Y4469D1*
X8681D1*
Y5138D1*
G37*
G36*
X8996D2*
X9193D1*
Y4469D1*
X8996D1*
Y5138D1*
G37*
G36*
X9311D2*
X9508D1*
Y4469D1*
X9311D1*
Y5138D1*
G37*
G36*
X9626Y5256D2*
Y5453D1*
X10295D1*
Y5256D1*
X9626D1*
G37*
G36*
Y5571D2*
Y5768D1*
X10295D1*
Y5571D1*
X9626D1*
G37*
G36*
Y5886D2*
Y6083D1*
X10295D1*
Y5886D1*
X9626D1*
G37*
G36*
Y6201D2*
Y6398D1*
X10295D1*
Y6201D1*
X9626D1*
G37*
G36*
Y6516D2*
Y6713D1*
X10295D1*
Y6516D1*
X9626D1*
G37*
G36*
Y6831D2*
Y7028D1*
X10295D1*
Y6831D1*
X9626D1*
G37*
G36*
Y7146D2*
Y7343D1*
X10295D1*
Y7146D1*
X9626D1*
G37*
G36*
Y7461D2*
Y7657D1*
X10295D1*
Y7461D1*
X9626D1*
G37*
G36*
X9311Y8445D2*
X9508D1*
Y7776D1*
X9311D1*
Y8445D1*
G37*
G36*
X8996D2*
X9193D1*
Y7776D1*
X8996D1*
Y8445D1*
G37*
G36*
X8681D2*
X8878D1*
Y7776D1*
X8681D1*
Y8445D1*
G37*
G36*
X8366D2*
X8563D1*
Y7776D1*
X8366D1*
Y8445D1*
G37*
G36*
X8051D2*
X8248D1*
Y7776D1*
X8051D1*
Y8445D1*
G37*
G36*
X7736D2*
X7933D1*
Y7776D1*
X7736D1*
Y8445D1*
G37*
G36*
X7421D2*
X7618D1*
Y7776D1*
X7421D1*
Y8445D1*
G37*
G36*
X7106D2*
X7303D1*
Y7776D1*
X7106D1*
Y8445D1*
G37*
D16*
X10276Y8622D3*
D18*
Y9122D3*
Y9622D3*
Y10122D3*
Y10622D3*
D19*
X10512Y7559D3*
X7520Y5591D3*
X7913D3*
X8346Y5551D3*
X8780Y5591D3*
X9173D3*
X7835Y7047D3*
X9409Y4252D3*
X6063Y7283D3*
D20*
X5669Y6260D3*
Y6929D3*
X5118Y6260D3*
Y6929D3*
D21*
X5315Y8543D3*
Y8799D3*
Y9055D3*
Y9311D3*
Y9567D3*
D22*
X4291Y10630D3*
X4252Y7441D3*
D23*
X4606Y4331D3*
X5906D3*
X4606Y5118D3*
X5906D3*
D19*
X5276Y10551D3*
D27*
X6457Y8465D3*
D28*
X5957D3*
D16*
X10276Y4291D3*
D18*
Y4791D3*
D19*
X4409Y6496D3*
D30*
X6299Y9331D3*
D32*
Y10331D3*
X7299Y9331D3*
Y10331D3*
X8299Y9331D3*
Y10331D3*
X9299Y9331D3*
Y10331D3*
D19*
X8150Y7323D3*
X8465Y7126D3*
X8780Y7165D3*
X9055Y7441D3*
X4528Y9606D3*
X4449Y9252D3*
X4803Y9331D3*
X10512Y7165D3*
X9606Y8583D3*
X8071Y8740D3*
X5827Y7717D3*
X9055Y4291D3*
%LNInner1_Plane*%
X4449Y9252D2*
D14*
Y7047D1*
X5394Y6102D1*
X7008D1*
X7520Y5591D1*
X4803Y9331D2*
Y7205D1*
X5551Y6457D1*
X7047D1*
X7913Y5591D1*
X8346Y5551D2*
X8307D1*
X7047Y6811D1*
X5945D1*
X5197Y7559D1*
Y9606D1*
X5000Y9803D1*
X4764D1*
X4528Y9567D1*
Y9606D1*
X9409Y4252D2*
Y4882D1*
X9921Y5394D1*
X9961D1*
X10157Y5591D1*
Y7835D1*
X10591Y8268D1*
Y9307D1*
X10276Y9622D1*
X9299Y10331D2*
Y10362D1*
X8819Y9882D1*
Y8701D1*
X7835Y7717D1*
Y7047D1*
X6299Y10331D2*
X5921D1*
X5709Y10118D1*
Y8713D1*
X5957Y8465D1*
X6299Y9331D2*
X6378D1*
X7283Y8425D1*
Y7087D1*
X7638Y6732D1*
X8031D1*
X8150Y6850D1*
Y7323D1*
X10276Y9122D2*
X10224D1*
X9921Y8819D1*
Y7008D1*
X9646Y6732D1*
X8819D1*
X8445Y7106D1*
X8465Y7126D1*
X8299Y10331D2*
X8323D1*
X8819Y10827D1*
X9606D1*
X9882Y10551D1*
Y9213D1*
X8780Y8110D1*
Y7165D1*
X7299Y10331D2*
Y10339D1*
X6772Y10866D1*
X4764D1*
X4134Y10236D1*
Y4449D1*
X4567Y4016D1*
X10433D1*
X10827Y4409D1*
Y7323D1*
X10630Y7520D1*
X10472D1*
X10512Y7559D1*
D17*
X10276Y8622D3*
Y9122D3*
Y9622D3*
Y10122D3*
Y10622D3*
D19*
X10512Y7559D3*
X7520Y5591D3*
X7913D3*
X8346Y5551D3*
X8780Y5591D3*
X9173D3*
X7835Y7047D3*
X9409Y4252D3*
X6063Y7283D3*
X5276Y10551D3*
D17*
X6457Y8465D3*
X5957D3*
X10276Y4291D3*
Y4791D3*
D19*
X4409Y6496D3*
D31*
X6299Y9331D3*
Y10331D3*
X7299Y9331D3*
Y10331D3*
X8299Y9331D3*
Y10331D3*
X9299Y9331D3*
Y10331D3*
D19*
X8150Y7323D3*
X8465Y7126D3*
X8780Y7165D3*
X9055Y7441D3*
X4528Y9606D3*
X4449Y9252D3*
X4803Y9331D3*
X10512Y7165D3*
X9606Y8583D3*
X8071Y8740D3*
X5827Y7717D3*
X9055Y4291D3*
%LNInner2_Plane*%
X8780Y5591D2*
D14*
X8819D1*
Y5787D1*
X8976Y5945D1*
X9016D1*
X9921Y6850D1*
Y9768D1*
X10276Y10122D1*
X9173Y5591D2*
Y5748D1*
X10197Y6772D1*
Y8543D1*
X10276Y8622D1*
X6457Y8465D2*
Y8425D1*
X6102Y8071D1*
X5118D1*
X4882Y7835D1*
Y6969D1*
X4409Y6496D1*
X9299Y9331D2*
X9134D1*
X9803Y10000D1*
Y10709D1*
X9606Y10906D1*
X4803D1*
X4134Y10236D1*
Y6772D1*
X4409Y6496D1*
X9055Y4291D2*
X4488D1*
X4252Y4528D1*
Y6339D1*
X4409Y6496D1*
X10276Y10622D2*
X9803Y10709D1*
X9055Y7441D2*
X8898D1*
X7756Y8583D1*
X7047D1*
X6811Y8819D1*
X5984D1*
X5748Y9055D1*
Y10079D1*
X5276Y10551D1*
X8071Y8740D2*
X8780D1*
X9331Y8189D1*
Y7087D1*
X8661Y6417D1*
X7638D1*
X6654Y7402D1*
Y7441D1*
X6339Y7756D1*
X5866D1*
X5827Y7717D1*
X9606Y8583D2*
Y6929D1*
X8858Y6181D1*
X4961D1*
X4567Y5787D1*
Y4921D1*
X4843Y4646D1*
X9567D1*
X9882Y4331D1*
X10079D1*
Y4252D1*
X10315D1*
X10276Y4291D1*
D17*
Y8622D3*
Y9122D3*
Y9622D3*
Y10122D3*
Y10622D3*
D19*
X10512Y7559D3*
X7520Y5591D3*
X7913D3*
X8346Y5551D3*
X8780Y5591D3*
X9173D3*
X7835Y7047D3*
X9409Y4252D3*
X6063Y7283D3*
X5276Y10551D3*
D17*
X6457Y8465D3*
X5957D3*
X10276Y4291D3*
Y4791D3*
D19*
X4409Y6496D3*
D31*
X6299Y9331D3*
Y10331D3*
X7299Y9331D3*
Y10331D3*
X8299Y9331D3*
Y10331D3*
X9299Y9331D3*
Y10331D3*
D19*
X8150Y7323D3*
X8465Y7126D3*
X8780Y7165D3*
X9055Y7441D3*
X4528Y9606D3*
X4449Y9252D3*
X4803Y9331D3*
X10512Y7165D3*
X9606Y8583D3*
X8071Y8740D3*
X5827Y7717D3*
X9055Y4291D3*
%LNBottom*%
X4449Y9252D2*
D14*
Y8819D1*
X4567Y8701D1*
X4803Y9331D2*
X5157Y8976D1*
Y8740D1*
X5118Y8701D1*
X4567Y10079D2*
Y9646D1*
X4528Y9606D1*
X10197Y6398D2*
X9941D1*
X9724Y6614D1*
Y7205D1*
X10236Y7717D1*
Y8661D1*
X10276Y8622D1*
X4370Y7244D2*
Y7362D1*
X5039Y8031D1*
X5433D1*
X6181D1*
X6614Y8465D1*
X6457D1*
X6811D1*
X7008Y8268D1*
X7717Y6063D2*
X6811D1*
X5433Y7441D1*
Y8031D1*
X4409Y6496D2*
X5709D1*
X6890Y5315D1*
X7756D1*
X8150Y4921D1*
X8504Y8622D2*
X9055D1*
X9449Y9016D1*
Y9181D1*
X9299Y9331D1*
X9055Y4291D2*
Y4724D1*
X9252Y4921D1*
X6063Y7283D2*
X7087D1*
X7126Y7244D1*
X7717Y6575D2*
X7480D1*
X7244Y6811D1*
Y7126D1*
X7126Y7244D1*
Y7717D1*
X7677Y8268D1*
X9134Y6772D2*
Y7362D1*
X9055Y7441D1*
X8504Y7874D2*
X8268D1*
X8110Y8031D1*
Y8701D1*
X8071Y8740D1*
X5118Y10079D2*
X5551D1*
X5866D1*
X6118Y10331D1*
X6299D1*
X5957Y8465D2*
X5787D1*
X5551Y8701D1*
Y10079D1*
X10197Y6024D2*
X9803D1*
X9449Y6378D1*
X8661D1*
X8465Y6575D1*
X8386D1*
X10276Y4791D2*
Y5039D1*
X10472Y5236D1*
Y5787D1*
X10236Y6024D1*
X10197D1*
X10787Y8386D2*
X10827D1*
Y8110D1*
X10866Y8071D1*
Y6457D1*
X10433Y6024D1*
X10197D1*
X10276Y9122D2*
X10720D1*
X10787Y9055D1*
X9409Y8248D2*
Y8228D1*
X9724D1*
X9882Y8386D1*
Y8583D1*
X9606D1*
X9134Y6024D2*
X8386D1*
Y6063D1*
X10197Y6772D2*
X10354D1*
X10551Y6969D1*
Y7165D1*
X10512D1*
D16*
X10276Y8622D3*
D18*
Y9122D3*
Y9622D3*
Y10122D3*
Y10622D3*
D19*
X10512Y7559D3*
X7520Y5591D3*
X7913D3*
X8346Y5551D3*
X8780Y5591D3*
X9173D3*
X7835Y7047D3*
X9409Y4252D3*
X6063Y7283D3*
D24*
X7126Y4488D3*
Y7244D3*
X4370D3*
Y4488D3*
D25*
X8386Y6063D3*
X7717D3*
D19*
X5276Y10551D3*
D26*
X5118Y10079D3*
Y8701D3*
X4567Y10079D3*
Y8701D3*
D27*
X6457Y8465D3*
D28*
X5957D3*
D16*
X10276Y4291D3*
D18*
Y4791D3*
D29*
X8150Y4921D3*
X9252D3*
D19*
X4409Y6496D3*
D30*
X6299Y9331D3*
D32*
Y10331D3*
X7299Y9331D3*
Y10331D3*
X8299Y9331D3*
Y10331D3*
X9299Y9331D3*
Y10331D3*
D19*
X8150Y7323D3*
X8465Y7126D3*
X8780Y7165D3*
X9055Y7441D3*
D34*
X10197Y6772D3*
Y6398D3*
Y6024D3*
X9134D3*
Y6772D3*
D19*
X4528Y9606D3*
X4449Y9252D3*
X4803Y9331D3*
D35*
X8504Y7874D3*
Y8622D3*
X9409Y8248D3*
D25*
X8386Y6575D3*
X7717D3*
X7677Y8268D3*
X7008D3*
D19*
X10512Y7165D3*
X9606Y8583D3*
X8071Y8740D3*
X5827Y7717D3*
X9055Y4291D3*
D20*
X10787Y9055D3*
Y8386D3*
%LNBoardPoly*%
G36*
X3937Y11024D2*
D11*
X11024D1*
Y3937D1*
X3937D1*
Y11024D1*
G37*
M02*
